<?xml version="1.0" encoding="UTF-8" standalone="no"?>
<!-- Created with Inkscape (http://www.inkscape.org/) -->

<svg
   xmlns:dc="http://purl.org/dc/elements/1.1/"
   xmlns:cc="http://creativecommons.org/ns#"
   xmlns:rdf="http://www.w3.org/1999/02/22-rdf-syntax-ns#"
   xmlns:svg="http://www.w3.org/2000/svg"
   xmlns="http://www.w3.org/2000/svg"
   xmlns:sodipodi="http://sodipodi.sourceforge.net/DTD/sodipodi-0.dtd"
   xmlns:inkscape="http://www.inkscape.org/namespaces/inkscape"
   width="603.0943mm"
   height="141.35722mm"
   viewBox="0 0 603.0943 141.35722"
   version="1.1"
   id="svg8"
   sodipodi:docname="logo_mcgill.svg"
   inkscape:version="0.92.5 (2060ec1f9f, 2020-04-08)">
  <defs
     id="defs2" />
  <sodipodi:namedview
     id="base"
     pagecolor="#ffffff"
     bordercolor="#666666"
     borderopacity="1.0"
     inkscape:pageopacity="0.0"
     inkscape:pageshadow="2"
     inkscape:zoom="0.35"
     inkscape:cx="959.68774"
     inkscape:cy="160.76873"
     inkscape:document-units="mm"
     inkscape:current-layer="g26"
     showgrid="false"
     inkscape:window-width="1848"
     inkscape:window-height="1016"
     inkscape:window-x="72"
     inkscape:window-y="27"
     inkscape:window-maximized="1"
     fit-margin-top="0"
     fit-margin-left="0"
     fit-margin-right="0"
     fit-margin-bottom="0" />
  <metadata
     id="metadata5">
    <rdf:RDF>
      <cc:Work
         rdf:about="">
        <dc:format>image/svg+xml</dc:format>
        <dc:type
           rdf:resource="http://purl.org/dc/dcmitype/StillImage" />
        <dc:title></dc:title>
      </cc:Work>
    </rdf:RDF>
  </metadata>
  <g
     inkscape:label="Layer 1"
     inkscape:groupmode="layer"
     id="layer1"
     transform="translate(285.66738,-53.036645)">
    <g
       transform="matrix(3.4315836,0,0,3.4315836,-246.81845,-175.09226)"
       style="clip-rule:evenodd;fill-rule:evenodd"
       id="g26">
      <g
         id="g4601"
         transform="translate(-65.426894,6.168192)">
        <path
           style="fill:#cf4037"
           inkscape:connector-curvature="0"
           id="path4579"
           d="M 54.975,79.217 C 53.489,73.94 54.359,69.072 54.359,63.18 c 5.277,-2.664 10.504,-2.869 16.19,-2.869 4.868,0 11.835,0.615 16.037,2.869 0.41,5.534 0.666,10.452 -0.769,16.805 -1.435,6.302 -5.585,15.064 -15.063,21.519 C 60.405,94.69 57.023,86.493 54.975,79.217 Z" />
        <path
           style="fill:#ffffff"
           inkscape:connector-curvature="0"
           id="path4581"
           d="m 59.893,71.481 -5.072,5.584 c 1.127,5.328 4.304,16.447 15.883,23.979 11.477,-7.891 14.551,-18.701 15.217,-24.132 l -4.919,-5.431 -5.533,5.584 -5.021,-5.533 -5.072,5.482 z m 24.03,-5.585 c -0.052,0 -0.154,-0.051 0,-0.103 0.102,0 0.358,0 0.666,0.359 0.103,-0.051 0.41,-0.512 0.717,-0.359 0,0 -1.024,2.255 -1.127,2.408 -0.41,-0.205 -3.023,-0.358 -2.767,-0.358 0.205,0 -2.357,0.051 -2.767,0.358 -0.103,-0.205 -1.127,-2.459 -1.127,-2.459 0.308,-0.154 0.666,0.308 0.769,0.358 0.256,-0.358 0.512,-0.358 0.563,-0.358 0.256,0.051 0.103,0.103 0.051,0.153 -1.229,0.974 0.563,2.152 0.974,0.974 1.64,0.205 1.178,-1.076 0.769,-1.281 -0.308,-0.051 -0.103,-0.103 0,-0.103 0.153,-0.103 0.358,-0.103 0.358,0.051 0,-0.717 0.051,-1.179 0.41,-1.383 0.41,0.256 0.461,0.666 0.41,1.383 0.051,-0.154 0.205,-0.051 0.359,-0.051 0.051,0.051 0.307,0.051 0.051,0.154 -0.41,0.153 -0.819,1.537 0.769,1.229 0.358,1.18 2.305,-0.101 0.922,-0.972 z m -1.076,1.332 0.512,0.563 -0.922,-0.154 z m -1.435,-0.615 0.563,1.024 h -1.127 z m -1.435,0.615 -0.461,0.563 0.922,-0.154 z" />
        <path
           style="fill:#ffffff"
           inkscape:connector-curvature="0"
           id="path4583"
           d="m 79.311,69.483 c -0.154,-0.308 -0.358,-0.871 -0.461,-0.974 0.41,-0.359 2.049,-0.41 2.665,-0.41 0.871,0 2.101,0.154 2.51,0.41 0,0 -0.205,0.615 -0.359,1.025 -0.717,-0.256 -1.639,-0.359 -2.254,-0.359 -0.717,0 -1.537,0.103 -2.101,0.308 z m 4.099,-0.871 c 0.154,0 0.308,0.153 0.308,0.256 a 0.331,0.331 0 0 1 -0.308,0.308 c -0.103,0 -0.256,-0.154 -0.256,-0.308 0,-0.103 0.154,-0.256 0.256,-0.256 z m -0.974,-0.206 c 0.154,0 0.308,0.153 0.308,0.256 0,0.154 -0.154,0.307 -0.308,0.307 -0.102,0 -0.256,-0.153 -0.256,-0.307 10e-4,-0.102 0.154,-0.256 0.256,-0.256 z m -0.973,-0.102 c 0.153,0 0.307,0.154 0.307,0.308 0,0.153 -0.154,0.308 -0.307,0.308 a 0.331,0.331 0 0 1 -0.308,-0.308 c 0.001,-0.154 0.155,-0.308 0.308,-0.308 z m -1.025,0.102 c 0.154,0 0.308,0.153 0.308,0.256 0,0.154 -0.154,0.307 -0.308,0.307 -0.153,0 -0.308,-0.153 -0.308,-0.307 0.001,-0.102 0.155,-0.256 0.308,-0.256 z m -0.922,0.206 c 0.154,0 0.308,0.153 0.308,0.256 0,0.154 -0.154,0.308 -0.308,0.308 -0.154,0 -0.307,-0.154 -0.307,-0.308 0,-0.103 0.153,-0.256 0.307,-0.256 z" />
        <path
           style="fill:#ffffff"
           inkscape:connector-curvature="0"
           id="path4585"
           d="m 81.412,69.38 c 1.127,0 2.203,0.205 2.203,0.358 0,0.103 -0.922,0.205 -2.101,0.205 -1.179,0 -2.152,-0.103 -2.152,-0.205 0,-0.153 0.923,-0.358 2.05,-0.358 z m -14.5,-6.814 c 0,0 0.769,0.307 1.384,0.051 0.819,-0.308 1.537,-0.512 2.101,-0.256 v 6.661 c -0.461,-0.205 -1.076,-0.102 -1.793,0.051 -0.717,0.154 -1.127,0.205 -1.691,0.103 v -6.61 z m 2.152,4.919 c 0,-0.256 0.153,-0.308 0.256,-0.308 0.103,0 0.256,0.051 0.256,0.308 0,0.256 -0.153,0.307 -0.256,0.307 -0.103,0 -0.256,-0.052 -0.256,-0.307 z m -0.153,0 c 0,0.41 0.307,0.461 0.41,0.461 0.103,0 0.41,-0.051 0.41,-0.461 0,-0.41 -0.308,-0.461 -0.41,-0.461 -0.102,0 -0.41,0.05 -0.41,0.461 z m -0.359,0.204 -0.358,-0.615 h -0.205 v 0.871 h 0.205 V 67.33 l 0.307,0.615 h 0.205 v -0.871 h -0.154 z m -0.922,0.359 h 0.153 V 67.125 H 67.63 Z m 2.254,-2.972 h -0.256 l -0.154,0.717 -0.154,-0.717 h -0.308 v 0.922 h 0.205 V 65.23 l 0.154,0.769 h 0.205 L 69.73,65.23 v 0.769 h 0.153 v -0.923 z m -1.64,0.513 c 0,-0.205 0.103,-0.307 0.205,-0.307 0.103,0 0.256,0.102 0.256,0.307 0,0.256 -0.154,0.358 -0.256,0.358 -0.102,0 -0.205,-0.102 -0.205,-0.358 z m -0.204,0 c 0,0.461 0.308,0.512 0.41,0.512 0.154,0 0.461,-0.051 0.461,-0.512 0,-0.41 -0.308,-0.461 -0.461,-0.461 -0.103,-0.001 -0.41,0.051 -0.41,0.461 z m -0.667,-0.154 h 0.154 c 0.103,0 0.205,0 0.205,0.256 0,0.154 -0.052,0.308 -0.205,0.308 h -0.154 z m -0.205,0.717 h 0.41 c 0.308,0 0.359,-0.307 0.359,-0.461 0,-0.153 -0.051,-0.409 -0.359,-0.409 h -0.41 z M 68.859,64 68.5,63.385 h -0.205 v 0.871 H 68.5 v -0.615 l 0.359,0.615 h 0.153 v -0.871 h -0.153 z m -0.973,0.308 h 0.154 v -0.871 h -0.154 z m -1.23,-1.742 -0.615,0.512 v 6.66 l 0.615,-0.614 z" />
        <path
           style="fill:#ffffff"
           inkscape:connector-curvature="0"
           id="path4587"
           d="m 66.246,69.841 0.615,-0.512 c 0.461,0.154 1.435,-0.051 1.896,-0.103 0.717,-0.154 1.076,-0.256 1.588,0 a 0.643,0.643 0 0 0 -0.461,0.615 z m 8.454,0 -0.615,-0.512 c -0.512,0.154 -1.383,-0.051 -1.896,-0.103 -0.819,-0.154 -1.076,-0.256 -1.537,0 0.256,0.103 0.41,0.358 0.358,0.615 z m -0.461,-7.327 0.614,0.564 v 6.558 l -0.614,-0.564 z" />
        <path
           style="fill:#ffffff"
           inkscape:connector-curvature="0"
           id="path4589"
           d="m 74.034,62.566 c 0,0 -0.769,0.307 -1.435,0.051 -0.82,-0.308 -1.486,-0.512 -1.947,-0.256 v 6.661 c 0.41,-0.205 0.922,-0.102 1.691,0.051 0.717,0.154 1.127,0.205 1.691,0.103 z m -2.664,5.38 h 0.358 c 0.307,0 0.358,-0.308 0.358,-0.513 0,-0.153 -0.051,-0.41 -0.358,-0.41 H 71.37 Z m 0.153,-0.769 h 0.205 c 0.051,0 0.205,0.051 0.205,0.308 0,0.153 -0.052,0.307 -0.205,0.307 h -0.205 z m 0.82,0.41 c 0,0.461 0.307,0.512 0.41,0.512 0.154,0 0.461,-0.051 0.461,-0.512 0,-0.41 -0.308,-0.461 -0.461,-0.461 -0.103,-0.001 -0.41,0.051 -0.41,0.461 z m 0.205,0 c 0,-0.205 0.102,-0.307 0.205,-0.307 0.103,0 0.256,0.102 0.256,0.307 0,0.256 -0.154,0.359 -0.256,0.359 -0.102,0 -0.205,-0.103 -0.205,-0.359 z m -0.717,-1.794 h 0.41 V 65.64 h -0.41 v -0.205 h 0.461 v -0.153 h -0.615 v 0.871 h 0.154 z m 0.666,0.41 h 0.205 v -0.922 h -0.205 z m -0.82,-2.51 c 0,-0.102 -0.103,-0.307 -0.359,-0.307 -0.256,0 -0.41,0.154 -0.41,0.461 0,0.307 0.154,0.461 0.41,0.461 0.205,0 0.359,-0.103 0.359,-0.308 h -0.154 c -0.051,0.103 -0.103,0.154 -0.205,0.154 -0.205,0 -0.205,-0.103 -0.205,-0.307 0,-0.256 0.102,-0.308 0.205,-0.308 0.154,0 0.154,0.103 0.205,0.153 h 0.154 z m 0.154,0.256 c 0,0.461 0.308,0.512 0.461,0.512 0.103,0 0.41,-0.051 0.41,-0.512 0,-0.41 -0.308,-0.461 -0.41,-0.461 -0.153,0 -0.461,0.051 -0.461,0.461 z m 0.205,0 c 0,-0.205 0.154,-0.307 0.256,-0.307 0.051,0 0.205,0.103 0.205,0.307 0,0.256 -0.154,0.359 -0.205,0.359 -0.103,0 -0.256,-0.103 -0.256,-0.359 z m 1.332,0.205 -0.308,-0.615 h -0.205 v 0.871 h 0.154 v -0.615 l 0.359,0.615 h 0.205 v -0.871 h -0.205 z m -2.869,5.175 c -0.256,0.256 -0.359,0.256 -0.308,0.512 h 0.563 c 0.052,-0.256 10e-4,-0.358 -0.255,-0.512 z" />
        <path
           style="fill:#cf4037"
           inkscape:connector-curvature="0"
           id="path4591"
           d="m 59.227,81.676 c 0.052,-0.154 0.257,-0.717 0.359,-0.871 -0.103,-0.154 -0.308,-0.358 -0.41,-0.358 0.051,-0.154 0.358,-0.359 0.308,-0.513 -0.103,-0.154 -0.205,-0.154 -0.513,-0.307 0.103,-0.205 0.308,-0.308 0.461,-0.358 0.205,-0.052 0.205,-0.256 0.461,-0.41 0.308,-0.154 0.615,-0.154 0.973,-0.205 0.461,0.051 1.742,0.41 1.384,1.998 0.769,1.537 3.484,-0.512 4.458,-0.512 -0.205,0.308 -0.41,0.666 -0.615,1.025 0.256,0.152 0.615,0 0.871,0 -0.256,0.871 -0.769,1.178 -1.229,1.537 0.461,1.383 2.049,0.871 3.484,0.717 -0.153,0.461 -0.769,0.512 -1.024,0.871 a 7.547,7.547 0 0 1 1.383,1.895 c -0.666,-0.408 -1.998,-0.869 -2.459,-1.023 -0.819,-0.359 -2.613,-0.359 -3.433,0 0.154,0.307 0.461,0.512 0.769,0.666 -0.461,0.871 -1.332,0.357 -1.845,0.205 -0.461,0.307 -1.281,0.357 -1.486,0.152 0,0 0,-0.256 0.256,-0.408 0.205,-0.256 -0.513,-0.309 -0.666,-0.615 0,-0.359 0.308,0 0.513,-0.359 -0.463,-0.873 -2.256,-1.078 -2,-3.127 z m 1.229,-2.459 c 0.103,0 0.154,0.052 0.154,0.154 0,0.103 -0.051,0.154 -0.154,0.154 -0.102,0 -0.154,-0.051 -0.154,-0.154 10e-4,-0.102 0.052,-0.154 0.154,-0.154 z m 11.119,2.715 c 0.051,-0.154 0.205,-0.717 0.307,-0.871 -0.102,-0.153 -0.256,-0.357 -0.41,-0.357 0.103,-0.154 0.359,-0.359 0.308,-0.513 -0.051,-0.154 -0.154,-0.154 -0.461,-0.307 0.103,-0.205 0.308,-0.308 0.461,-0.359 0.205,0 0.205,-0.256 0.461,-0.41 0.308,-0.153 0.615,-0.153 0.974,-0.153 0.461,0 1.742,0.358 1.383,1.947 0.769,1.538 3.484,-0.563 4.458,-0.563 l -0.615,1.076 c 0.256,0.154 0.615,0 0.871,0 -0.256,0.871 -0.819,1.229 -1.229,1.537 0.41,1.383 2.049,0.871 3.483,0.717 -0.153,0.461 -0.769,0.512 -1.024,0.871 0.461,0.512 1.024,1.178 1.383,1.896 -0.666,-0.41 -1.999,-0.871 -2.459,-1.025 -0.819,-0.359 -2.613,-0.359 -3.484,0 0.205,0.307 0.512,0.512 0.82,0.666 -0.461,0.871 -1.332,0.359 -1.845,0.205 -0.461,0.307 -1.281,0.359 -1.486,0.154 0,0 0,-0.205 0.256,-0.41 0.205,-0.256 -0.512,-0.309 -0.717,-0.615 0,-0.359 0.359,0 0.564,-0.359 -0.462,-0.873 -2.256,-1.078 -1.999,-3.127 z m 1.178,-2.459 c 0.103,0 0.205,0.051 0.205,0.154 0,0.103 -0.103,0.153 -0.205,0.153 -0.051,0 -0.153,-0.051 -0.153,-0.153 0,-0.102 0.102,-0.154 0.153,-0.154 z m -7.122,11.17 c 0.103,-0.205 0.256,-0.719 0.359,-0.871 -0.103,-0.154 -0.256,-0.359 -0.41,-0.359 0.051,-0.154 0.358,-0.41 0.308,-0.562 -0.051,-0.104 -0.205,-0.104 -0.461,-0.258 0.102,-0.203 0.307,-0.357 0.461,-0.357 0.154,-0.051 0.154,-0.256 0.41,-0.41 0.307,-0.154 0.666,-0.154 0.973,-0.205 0.461,0.051 1.793,0.41 1.435,1.998 0.769,1.537 3.484,-0.564 4.406,-0.564 -0.154,0.359 -0.41,0.719 -0.563,1.076 0.205,0.154 0.563,0 0.871,0 -0.308,0.82 -0.82,1.18 -1.23,1.537 0.41,1.385 2.049,0.871 3.484,0.719 -0.205,0.461 -0.768,0.512 -1.076,0.871 0.512,0.512 1.076,1.178 1.383,1.895 -0.615,-0.461 -1.947,-0.871 -2.408,-1.076 -0.871,-0.307 -2.613,-0.307 -3.484,0 0.154,0.359 0.512,0.564 0.769,0.719 -0.41,0.871 -1.281,0.357 -1.793,0.152 -0.461,0.359 -1.281,0.41 -1.486,0.205 0,0 0,-0.256 0.256,-0.41 0.154,-0.256 -0.512,-0.307 -0.717,-0.666 0,-0.307 0.359,0 0.513,-0.307 -0.411,-0.873 -2.204,-1.078 -2,-3.127 z m 1.23,-2.511 c 0.102,0 0.153,0.104 0.153,0.205 0,0.053 -0.051,0.154 -0.153,0.154 -0.052,0 -0.154,-0.102 -0.154,-0.154 0,-0.102 0.103,-0.205 0.154,-0.205 z" />
        <path
           style="fill:#ffffff"
           inkscape:connector-curvature="0"
           id="path4593"
           d="m 62.25,65.896 c -0.051,0 -0.154,-0.051 0,-0.103 0.103,0 0.358,0 0.666,0.359 0.103,-0.051 0.41,-0.512 0.717,-0.359 0,0 -1.025,2.255 -1.127,2.408 -0.41,-0.205 -3.022,-0.358 -2.767,-0.358 0.205,0 -2.356,0.051 -2.767,0.358 -0.103,-0.205 -1.127,-2.459 -1.127,-2.459 0.307,-0.154 0.666,0.308 0.768,0.358 0.256,-0.358 0.513,-0.358 0.564,-0.358 0.256,0.051 0.103,0.103 0.051,0.153 -1.229,0.974 0.564,2.152 0.974,0.974 1.64,0.205 1.179,-1.076 0.769,-1.281 -0.308,-0.051 -0.103,-0.103 0,-0.103 0.154,-0.103 0.359,-0.103 0.359,0.051 0,-0.717 0.051,-1.179 0.41,-1.383 0.41,0.256 0.461,0.666 0.41,1.383 0.051,-0.154 0.205,-0.051 0.358,-0.051 0.051,0.051 0.308,0.051 0.051,0.154 -0.41,0.153 -0.82,1.537 0.769,1.229 0.358,1.18 2.305,-0.101 0.922,-0.972 z m -1.076,1.332 0.512,0.563 -0.922,-0.154 z m -1.435,-0.615 0.563,1.024 h -1.127 z m -1.434,0.615 -0.461,0.563 0.922,-0.154 z" />
        <path
           style="fill:#ffffff"
           inkscape:connector-curvature="0"
           id="path4595"
           d="m 57.69,69.483 c -0.205,-0.308 -0.41,-0.871 -0.512,-0.974 0.41,-0.359 2.049,-0.41 2.664,-0.41 0.871,0 2.101,0.154 2.511,0.41 0,0 -0.205,0.615 -0.359,1.025 -0.666,-0.256 -1.639,-0.359 -2.254,-0.359 -0.718,0 -1.538,0.103 -2.05,0.308 z m 4.047,-0.871 c 0.154,0 0.308,0.153 0.308,0.256 a 0.331,0.331 0 0 1 -0.308,0.308 c -0.102,0 -0.256,-0.154 -0.256,-0.308 0,-0.103 0.154,-0.256 0.256,-0.256 z m -0.973,-0.206 c 0.154,0 0.307,0.153 0.307,0.256 a 0.33,0.33 0 0 1 -0.307,0.307 c -0.103,0 -0.256,-0.153 -0.256,-0.307 0,-0.102 0.154,-0.256 0.256,-0.256 z M 59.79,68.304 c 0.154,0 0.307,0.154 0.307,0.308 0,0.153 -0.153,0.308 -0.307,0.308 -0.154,0 -0.307,-0.154 -0.307,-0.308 0,-0.154 0.154,-0.308 0.307,-0.308 z m -1.024,0.102 c 0.154,0 0.308,0.153 0.308,0.256 0,0.154 -0.154,0.307 -0.308,0.307 a 0.33,0.33 0 0 1 -0.307,-0.307 c -0.001,-0.102 0.153,-0.256 0.307,-0.256 z m -0.922,0.206 c 0.154,0 0.308,0.153 0.308,0.256 0,0.154 -0.154,0.308 -0.308,0.308 -0.154,0 -0.308,-0.154 -0.308,-0.308 0,-0.103 0.154,-0.256 0.308,-0.256 z" />
        <path
           style="fill:#ffffff"
           inkscape:connector-curvature="0"
           id="path4597"
           d="m 59.739,69.38 c 1.127,0 2.203,0.205 2.203,0.358 0,0.103 -0.922,0.205 -2.101,0.205 -1.179,0 -2.152,-0.103 -2.152,-0.205 10e-4,-0.153 0.923,-0.358 2.05,-0.358 z" />
        <path
           style="fill:#cf4037"
           inkscape:connector-curvature="0"
           id="path4599"
           d="m 197.512,64.154 a 2.514,2.514 0 0 1 2.51,2.51 c 0,1.384 -1.127,2.562 -2.51,2.562 -1.385,0 -2.512,-1.178 -2.512,-2.562 a 2.515,2.515 0 0 1 2.512,-2.51 z m 23.824,26.694 c -0.104,1.127 -0.615,1.844 -2.664,2.408 -1.641,0.512 -1.436,1.383 0.205,1.484 4.457,-0.666 5.84,-0.562 9.836,-0.102 1.59,-0.051 1.332,-1.025 0.359,-1.486 -2.357,-0.922 -2.715,-0.922 -3.176,-3.279 L 225.691,66.51 c 0,-1.332 0.512,-2.92 -0.924,-2.562 -2.664,1.076 -2.869,1.127 -5.328,1.998 -1.281,0.513 -0.768,1.178 0.154,1.486 1.281,0.513 1.383,1.281 1.486,2.255 z m -13.679,-0.103 c -0.154,1.076 -0.666,1.793 -2.717,2.408 -1.639,0.514 -1.434,1.383 0.205,1.436 4.459,-0.615 5.842,-0.514 9.838,-0.104 1.588,0 1.332,-1.023 0.359,-1.486 -2.357,-0.922 -2.717,-0.922 -3.178,-3.227 l -0.205,-23.415 c 0,-1.332 0.514,-2.92 -0.922,-2.562 -2.664,1.076 -2.869,1.179 -5.328,1.998 -1.23,0.564 -0.77,1.179 0.154,1.486 1.279,0.512 1.434,1.332 1.484,2.254 z m -12.553,-9.223 c -0.104,-1.178 -0.256,-2.1 -1.588,-2.51 -0.975,-0.103 -1.436,-0.974 -0.053,-1.486 2.768,-0.922 3.178,-1.076 5.277,-2.818 0.666,-0.307 1.436,-0.051 1.076,1.127 -0.154,0.922 -0.102,1.332 -0.205,2.306 l 0.051,12.193 c 0.104,1.998 1.641,2.307 2.613,2.717 1.025,0.41 1.076,1.537 -0.051,1.588 -4.355,-0.615 -5.277,-0.666 -9.479,0.154 -1.383,0.051 -1.691,-1.025 0.051,-1.641 1.691,-0.615 2.307,-0.922 2.357,-2.357 z m -38.273,-2.253 c 0.975,-10.401 7.635,-14.705 17.01,-15.474 9.889,0.052 11.324,0.717 11.17,6.2 0.051,1.998 -1.23,2.459 -2.152,0.205 -1.076,-1.998 -1.947,-3.176 -4.457,-4.201 -8.557,-1.947 -14.859,3.536 -15.217,12.86 -0.615,13.117 14.09,16.958 17.113,12.041 0.666,-1.281 0.666,-4.662 0.562,-7.48 -0.512,-1.844 -2.305,-1.691 -3.996,-1.742 -1.844,0.154 -2.51,-1.947 -0.051,-1.947 2.408,0 7.07,0.256 13.014,-0.308 1.742,0.051 1.895,1.639 -0.256,1.895 -0.922,0.205 -2.922,0.154 -3.178,1.691 -0.205,7.992 1.641,8.762 -4.355,10.965 -7.684,1.793 -15.984,0.973 -20.646,-3.535 -2.102,-1.897 -4.716,-6.149 -4.561,-11.17 z m -19.829,5.327 c 0.871,-8.607 8.045,-10.657 11.732,-10.657 4.355,0.103 5.738,1.537 5.791,3.023 0.051,1.435 -0.975,2.203 -2.102,1.896 -2.408,-0.615 -1.947,-3.177 -5.174,-3.331 -3.588,0.512 -5.791,4.56 -5.176,9.428 0.615,4.867 5.328,8.453 11.066,5.482 1.385,-0.309 1.486,0.871 0.359,1.639 -10.501,6.509 -16.905,-2.714 -16.496,-7.48 z M 104.468,70.097 c -0.256,-2.972 -1.178,-2.049 -3.433,-2.972 -1.845,-0.358 -1.998,-1.69 -0.154,-1.742 3.228,0.256 4.868,0.307 7.583,-0.154 1.229,0.205 1.793,0.717 2.254,1.896 2.254,4.816 5.584,12.041 7.839,16.856 0.41,0.871 0.615,1.025 1.127,-0.051 l 6.712,-17.164 c 0.718,-1.435 1.537,-1.793 3.894,-1.588 4.047,0.051 5.021,-0.052 7.02,-0.256 1.69,0.051 1.588,1.383 -0.103,1.844 -2.613,0 -3.945,0.922 -4.355,2.869 l 0.358,19.675 c 0.41,2.92 1.947,3.021 4.663,3.688 1.281,0.564 0.973,1.436 -0.051,1.742 -5.738,-0.666 -7.686,-0.613 -13.373,-0.102 -1.64,0.154 -1.742,-1.23 0,-1.641 2.101,-0.461 2.665,-0.818 3.125,-1.895 l -0.461,-19.009 c -0.052,-0.717 -0.513,-0.717 -0.82,0.154 L 118.3,92.229 c -0.717,1.742 -1.076,1.742 -1.896,0.41 l -9.479,-20.495 c -0.256,-0.717 -0.615,-0.513 -0.666,-0.051 l 0.102,18.087 c 0.257,2.1 1.691,2.203 4.663,3.125 0.82,0.307 0.871,0.973 0.205,1.434 -5.79,-0.461 -6.712,-0.461 -12.091,0.205 -0.82,0 -1.229,-1.229 0.102,-1.434 2.818,-0.82 3.587,-0.82 4.048,-2.459 z" />
      </g>
    </g>
  </g>
</svg>
